<mxfile host="app.diagrams.net" modified="2024-02-20T11:27:03.776Z" agent="Mozilla/5.0 (Windows NT 10.0; Win64; x64) AppleWebKit/537.36 (KHTML, like Gecko) Chrome/120.0.0.0 YaBrowser/24.1.0.0 Safari/537.36" etag="WILhhK_7We_d_jhN9c1q" version="23.1.5" type="device">
  <diagram name="Страница — 1" id="fjVeycYzlo5oe9TcMfQL">
    <mxGraphModel dx="1418" dy="746" grid="1" gridSize="10" guides="1" tooltips="1" connect="1" arrows="1" fold="1" page="1" pageScale="1" pageWidth="827" pageHeight="1169" math="0" shadow="0">
      <root>
        <mxCell id="0" />
        <mxCell id="1" parent="0" />
        <mxCell id="SGCzJPjL91k1KU_zi0rR-6" style="edgeStyle=orthogonalEdgeStyle;rounded=0;orthogonalLoop=1;jettySize=auto;html=1;exitX=0.5;exitY=1;exitDx=0;exitDy=0;" edge="1" parent="1" source="SGCzJPjL91k1KU_zi0rR-1">
          <mxGeometry relative="1" as="geometry">
            <mxPoint x="414" y="140" as="targetPoint" />
          </mxGeometry>
        </mxCell>
        <mxCell id="SGCzJPjL91k1KU_zi0rR-1" value="Start" style="ellipse;whiteSpace=wrap;html=1;" vertex="1" parent="1">
          <mxGeometry x="354" y="20" width="120" height="80" as="geometry" />
        </mxCell>
        <mxCell id="SGCzJPjL91k1KU_zi0rR-7" style="edgeStyle=orthogonalEdgeStyle;rounded=0;orthogonalLoop=1;jettySize=auto;html=1;exitX=0.5;exitY=1;exitDx=0;exitDy=0;entryX=0.5;entryY=0;entryDx=0;entryDy=0;" edge="1" parent="1" target="SGCzJPjL91k1KU_zi0rR-4">
          <mxGeometry relative="1" as="geometry">
            <mxPoint x="414" y="200" as="sourcePoint" />
          </mxGeometry>
        </mxCell>
        <mxCell id="SGCzJPjL91k1KU_zi0rR-9" value="" style="edgeStyle=orthogonalEdgeStyle;rounded=0;orthogonalLoop=1;jettySize=auto;html=1;" edge="1" parent="1" source="SGCzJPjL91k1KU_zi0rR-4" target="SGCzJPjL91k1KU_zi0rR-8">
          <mxGeometry relative="1" as="geometry" />
        </mxCell>
        <mxCell id="SGCzJPjL91k1KU_zi0rR-16" style="edgeStyle=orthogonalEdgeStyle;rounded=0;orthogonalLoop=1;jettySize=auto;html=1;" edge="1" parent="1" target="SGCzJPjL91k1KU_zi0rR-18">
          <mxGeometry relative="1" as="geometry">
            <mxPoint x="420" y="650" as="targetPoint" />
            <mxPoint x="530" y="280" as="sourcePoint" />
            <Array as="points">
              <mxPoint x="642" y="280" />
              <mxPoint x="642" y="660" />
            </Array>
          </mxGeometry>
        </mxCell>
        <mxCell id="SGCzJPjL91k1KU_zi0rR-4" value="for(int i=0;i&amp;lt;worlds.Length;i++;" style="shape=hexagon;perimeter=hexagonPerimeter2;whiteSpace=wrap;html=1;fixedSize=1;" vertex="1" parent="1">
          <mxGeometry x="299" y="240" width="230" height="80" as="geometry" />
        </mxCell>
        <mxCell id="SGCzJPjL91k1KU_zi0rR-10" style="edgeStyle=orthogonalEdgeStyle;rounded=0;orthogonalLoop=1;jettySize=auto;html=1;" edge="1" parent="1" source="SGCzJPjL91k1KU_zi0rR-8">
          <mxGeometry relative="1" as="geometry">
            <mxPoint x="414" y="570" as="targetPoint" />
          </mxGeometry>
        </mxCell>
        <mxCell id="SGCzJPjL91k1KU_zi0rR-11" style="edgeStyle=orthogonalEdgeStyle;rounded=0;orthogonalLoop=1;jettySize=auto;html=1;entryX=0;entryY=0.5;entryDx=0;entryDy=0;" edge="1" parent="1" source="SGCzJPjL91k1KU_zi0rR-8" target="SGCzJPjL91k1KU_zi0rR-4">
          <mxGeometry relative="1" as="geometry">
            <mxPoint x="220" y="250" as="targetPoint" />
            <Array as="points">
              <mxPoint x="221" y="410" />
              <mxPoint x="221" y="280" />
            </Array>
          </mxGeometry>
        </mxCell>
        <mxCell id="SGCzJPjL91k1KU_zi0rR-8" value="&lt;div&gt;if (word.Length &amp;lt;= 3)&lt;/div&gt;&lt;div&gt;&amp;nbsp; &amp;nbsp;&amp;nbsp;&lt;/div&gt;" style="rhombus;whiteSpace=wrap;html=1;" vertex="1" parent="1">
          <mxGeometry x="332" y="360" width="164" height="100" as="geometry" />
        </mxCell>
        <mxCell id="SGCzJPjL91k1KU_zi0rR-12" value="No" style="text;html=1;align=center;verticalAlign=middle;resizable=0;points=[];autosize=1;strokeColor=none;fillColor=none;" vertex="1" parent="1">
          <mxGeometry x="220" y="348" width="40" height="30" as="geometry" />
        </mxCell>
        <mxCell id="SGCzJPjL91k1KU_zi0rR-13" value="Yes" style="text;html=1;align=center;verticalAlign=middle;resizable=0;points=[];autosize=1;strokeColor=none;fillColor=none;" vertex="1" parent="1">
          <mxGeometry x="414" y="470" width="40" height="30" as="geometry" />
        </mxCell>
        <mxCell id="SGCzJPjL91k1KU_zi0rR-14" value="count++;" style="rounded=0;whiteSpace=wrap;html=1;" vertex="1" parent="1">
          <mxGeometry x="354" y="525" width="120" height="60" as="geometry" />
        </mxCell>
        <mxCell id="SGCzJPjL91k1KU_zi0rR-15" value="string[] words = [&quot;Hello&quot;, &quot;2&quot;, &quot;world&quot;, &quot;:-)&quot;];&lt;br&gt;int count=0;" style="shape=parallelogram;perimeter=parallelogramPerimeter;whiteSpace=wrap;html=1;fixedSize=1;" vertex="1" parent="1">
          <mxGeometry x="280" y="140" width="260" height="60" as="geometry" />
        </mxCell>
        <mxCell id="SGCzJPjL91k1KU_zi0rR-21" style="edgeStyle=orthogonalEdgeStyle;rounded=0;orthogonalLoop=1;jettySize=auto;html=1;entryX=0.5;entryY=0;entryDx=0;entryDy=0;" edge="1" parent="1" source="SGCzJPjL91k1KU_zi0rR-18" target="SGCzJPjL91k1KU_zi0rR-20">
          <mxGeometry relative="1" as="geometry" />
        </mxCell>
        <mxCell id="SGCzJPjL91k1KU_zi0rR-18" value="&lt;div&gt;&amp;nbsp;string[] words2 = new string[count];&lt;/div&gt;&lt;div&gt;&amp;nbsp; int j = 0;&lt;/div&gt;" style="shape=parallelogram;perimeter=parallelogramPerimeter;whiteSpace=wrap;html=1;fixedSize=1;" vertex="1" parent="1">
          <mxGeometry x="292" y="630" width="244" height="60" as="geometry" />
        </mxCell>
        <mxCell id="SGCzJPjL91k1KU_zi0rR-23" style="edgeStyle=orthogonalEdgeStyle;rounded=0;orthogonalLoop=1;jettySize=auto;html=1;exitX=0.5;exitY=1;exitDx=0;exitDy=0;" edge="1" parent="1" source="SGCzJPjL91k1KU_zi0rR-20" target="SGCzJPjL91k1KU_zi0rR-22">
          <mxGeometry relative="1" as="geometry" />
        </mxCell>
        <mxCell id="SGCzJPjL91k1KU_zi0rR-20" value="for (int i = 0; i &amp;lt; words.Length; i++)&lt;br&gt;&amp;nbsp;string word = words[i]" style="shape=hexagon;perimeter=hexagonPerimeter2;whiteSpace=wrap;html=1;fixedSize=1;" vertex="1" parent="1">
          <mxGeometry x="259" y="740" width="310" height="80" as="geometry" />
        </mxCell>
        <mxCell id="SGCzJPjL91k1KU_zi0rR-24" style="edgeStyle=orthogonalEdgeStyle;rounded=0;orthogonalLoop=1;jettySize=auto;html=1;exitX=0;exitY=0.5;exitDx=0;exitDy=0;entryX=0;entryY=0.5;entryDx=0;entryDy=0;" edge="1" parent="1" source="SGCzJPjL91k1KU_zi0rR-22" target="SGCzJPjL91k1KU_zi0rR-20">
          <mxGeometry relative="1" as="geometry">
            <mxPoint x="190" y="840" as="targetPoint" />
          </mxGeometry>
        </mxCell>
        <mxCell id="SGCzJPjL91k1KU_zi0rR-28" style="edgeStyle=orthogonalEdgeStyle;rounded=0;orthogonalLoop=1;jettySize=auto;html=1;exitX=0.5;exitY=1;exitDx=0;exitDy=0;entryX=0.5;entryY=0;entryDx=0;entryDy=0;" edge="1" parent="1" source="SGCzJPjL91k1KU_zi0rR-22" target="SGCzJPjL91k1KU_zi0rR-27">
          <mxGeometry relative="1" as="geometry" />
        </mxCell>
        <mxCell id="SGCzJPjL91k1KU_zi0rR-22" value="if (word.Length &amp;lt;= 3)" style="rhombus;whiteSpace=wrap;html=1;" vertex="1" parent="1">
          <mxGeometry x="341" y="858" width="146" height="110" as="geometry" />
        </mxCell>
        <mxCell id="SGCzJPjL91k1KU_zi0rR-25" value="No" style="text;html=1;align=center;verticalAlign=middle;resizable=0;points=[];autosize=1;strokeColor=none;fillColor=none;" vertex="1" parent="1">
          <mxGeometry x="250" y="880" width="40" height="30" as="geometry" />
        </mxCell>
        <mxCell id="SGCzJPjL91k1KU_zi0rR-30" style="edgeStyle=orthogonalEdgeStyle;rounded=0;orthogonalLoop=1;jettySize=auto;html=1;exitX=0.5;exitY=1;exitDx=0;exitDy=0;entryX=0.5;entryY=0;entryDx=0;entryDy=0;" edge="1" parent="1" source="SGCzJPjL91k1KU_zi0rR-27" target="SGCzJPjL91k1KU_zi0rR-29">
          <mxGeometry relative="1" as="geometry" />
        </mxCell>
        <mxCell id="SGCzJPjL91k1KU_zi0rR-27" value="&lt;div&gt;words2[j] = word;&lt;/div&gt;&lt;div&gt;j++;&lt;/div&gt;" style="rounded=0;whiteSpace=wrap;html=1;" vertex="1" parent="1">
          <mxGeometry x="354" y="1010" width="120" height="60" as="geometry" />
        </mxCell>
        <mxCell id="SGCzJPjL91k1KU_zi0rR-34" style="edgeStyle=orthogonalEdgeStyle;rounded=0;orthogonalLoop=1;jettySize=auto;html=1;entryX=0.5;entryY=0;entryDx=0;entryDy=0;" edge="1" parent="1" source="SGCzJPjL91k1KU_zi0rR-29" target="SGCzJPjL91k1KU_zi0rR-33">
          <mxGeometry relative="1" as="geometry" />
        </mxCell>
        <mxCell id="SGCzJPjL91k1KU_zi0rR-29" value="Console.WriteLine(string.Join(&quot;,&quot;, words2));" style="shape=document;whiteSpace=wrap;html=1;boundedLbl=1;" vertex="1" parent="1">
          <mxGeometry x="306" y="1100" width="216" height="80" as="geometry" />
        </mxCell>
        <mxCell id="SGCzJPjL91k1KU_zi0rR-33" value="End&lt;div&gt;&lt;br/&gt;&lt;/div&gt;" style="ellipse;whiteSpace=wrap;html=1;" vertex="1" parent="1">
          <mxGeometry x="354" y="1240" width="120" height="80" as="geometry" />
        </mxCell>
        <mxCell id="SGCzJPjL91k1KU_zi0rR-35" value="Yes" style="text;html=1;align=center;verticalAlign=middle;resizable=0;points=[];autosize=1;strokeColor=none;fillColor=none;" vertex="1" parent="1">
          <mxGeometry x="410" y="968" width="40" height="30" as="geometry" />
        </mxCell>
      </root>
    </mxGraphModel>
  </diagram>
</mxfile>
